# xmcd CD database file
#
# Track frame offsets:
#	150
#	18980
#	34783
#	54119
#	73441
#	91975
#	108486
#	123461
#	142871
#	160506
#	180535
#
# Disc length: 2541 seconds
#
# Revision: 2
# Processed by: cddbd v1.5.2PL0 Copyright (c) Steve Scherf et al.
# Submitted via: CDex 1.86
#
DISCID=8909eb0b
DTITLE=Skye - Mind how you go
DYEAR=2005
DGENRE=Pop
TTITLE0=Love show
TTITLE1=Stop complaining
TTITLE2=Solitary
TTITLE3=Calling
TTITLE4=What's wrong with me
TTITLE5=No other
TTITLE6=Tell me about your day
TTITLE7=All the promises
TTITLE8=Powerful
TTITLE9=Say amen
TTITLE10=Jamaica days
EXTD=YEAR: 2005
EXTT0=
EXTT1=
EXTT2=
EXTT3=
EXTT4=
EXTT5=
EXTT6=
EXTT7=
EXTT8=
EXTT9=
EXTT10=
PLAYORDER=
